<?xml version="1.0" ?><!DOCTYPE svg  PUBLIC '-//W3C//DTD SVG 1.1//EN'  'http://www.w3.org/Graphics/SVG/1.1/DTD/svg11.dtd'><svg enable-background="new 0 0 64 64" height="64px" id="Layer_1" version="1.1" viewBox="0 0 64 64" width="64px" xml:space="preserve" xmlns="http://www.w3.org/2000/svg" xmlns:xlink="http://www.w3.org/1999/xlink"><g><g><path d="M12.187,31.067v0.013c-0.015-0.013-0.015-0.013-0.015-0.013H12.187z" fill="#241F20"/></g><g><path d="M23.565,9.55c-5.241,0-9.49,4.248-9.49,9.488s4.249,9.489,9.49,9.489c5.24,0,9.487-4.249,9.487-9.489    S28.806,9.55,23.565,9.55z M23.565,25.396c-3.512,0-6.358-2.846-6.358-6.357c0-3.51,2.847-6.356,6.358-6.356    c3.51,0,6.355,2.847,6.355,6.356C29.921,22.55,27.075,25.396,23.565,25.396z" fill="#241F20"/></g><path d="M55.85,9.978h-7.047c-4.978,0-11.812-4.137-15.18-6.334c-0.016-0.026-0.029-0.026-0.058-0.04   c-0.796-0.533-1.397-0.952-1.719-1.161c-0.057-0.027-0.099-0.058-0.14-0.085c-0.196-0.124-0.419-0.235-0.658-0.348   c-0.25-0.128-0.518-0.253-0.781-0.378c-0.043-0.013-0.07-0.03-0.111-0.043c-0.015-0.014-0.043-0.027-0.071-0.027   c-0.084-0.04-0.153-0.071-0.236-0.098c-0.07-0.041-0.142-0.071-0.196-0.085c-0.07-0.027-0.14-0.054-0.211-0.084   c-0.055-0.026-0.111-0.041-0.167-0.067c-0.14-0.058-0.267-0.098-0.391-0.142c-0.028-0.014-0.071-0.027-0.099-0.041   c-0.014,0-0.027-0.014-0.042-0.014c-0.07-0.03-0.141-0.058-0.195-0.071c-0.015-0.013-0.028-0.013-0.058-0.026   C28.463,0.92,28.449,0.92,28.436,0.92c-0.083-0.044-0.167-0.07-0.266-0.102c-0.028-0.013-0.042-0.013-0.042-0.013   c-1.636-0.517-3.383-0.783-5.187-0.783c-9.716,0-17.585,7.87-17.585,17.586c0,3.79,1.188,7.282,3.215,10.151h0.015v0.014   c0.237,0.392,4.109,6.651,4.109,16.815v16.244c0,1.733,1.522,3.145,3.396,3.145h11.295c1.874,0,3.397-1.411,3.397-3.145V44.09   c0-11.852,11.569-14.169,17.997-14.541h7.068c1.549,0,2.794-1.246,2.794-2.795V12.771C58.644,11.233,57.398,9.978,55.85,9.978z    M54.825,23.234c-0.012,0.643-0.24,2.794-2.861,2.775h-1.675c-5.351-0.165-9.135,0.625-11.597,1.469   c-0.305,0.096-0.591,0.209-0.878,0.321c-0.063,0.023-0.129,0.051-0.191,0.074c-0.14,0.058-0.271,0.126-0.409,0.185l-0.003-0.007   c0,0-7.921,1.996-9.759,14.121c-0.005-0.033-0.007-0.07-0.007-0.07s-0.035,0.308-0.088,0.834c-0.096,0.748-0.167,1.532-0.213,2.355   c-0.229,2.817-0.49,7.162-0.432,11.618l-0.006-0.003c0,0,0.005,0.045,0.007,0.064c0.004,0.24,0.004,0.476,0.009,0.715   c-0.046,0.895-0.369,2.244-1.945,2.244h-5.616c-1.873,0-2.38-1.245-2.497-2.18v-4.033h-0.003   c0.119-16.647-2.952-23.056-2.952-23.056h-0.003c-0.89-3.146-2.019-4.984-2.13-5.17v-0.011h-0.012   c-1.587-2.244-2.518-4.981-2.518-7.947c0-7.61,6.162-13.772,13.771-13.772c1.412,0,2.779,0.209,4.061,0.612   c0,0,0.012,0,0.034,0.012c0.075,0.023,0.142,0.044,0.208,0.079c0.01,0,0.021,0,0.042,0.011c0.022,0.01,0.033,0.01,0.045,0.021   c0.043,0.012,0.099,0.031,0.154,0.055c0.01,0,0.021,0.013,0.031,0.013c0.021,0.01,0.054,0.021,0.078,0.03   c0.097,0.035,0.195,0.065,0.306,0.111c0.044,0.022,0.087,0.032,0.131,0.052c0.056,0.023,0.109,0.046,0.164,0.068   c0.043,0.01,0.099,0.033,0.155,0.065c0.063,0.021,0.12,0.045,0.185,0.076c0.021,0,0.044,0.01,0.055,0.02   c0.034,0.012,0.055,0.025,0.088,0.036c0.207,0.098,0.415,0.195,0.613,0.297c0.185,0.086,0.359,0.174,0.514,0.271   c0.033,0.021,0.066,0.044,0.109,0.065c0.253,0.164,0.722,0.491,1.347,0.91c0.023,0.01,0.032,0.01,0.045,0.032   c0.391,0.254,0.855,0.548,1.353,0.854l-0.003,0.001c0,0,6.215,5.3,19.68,5.743l0.002,0.005c0,0,0.023-0.003,0.031-0.003   c0.197,0.005,0.412,0.001,0.612,0.005c0.772,0.087,1.968,0.562,1.968,2.738V23.234z" fill="#241F20"/></g></svg>